<svg id="eVXEoA3ITvQ1" xmlns="http://www.w3.org/2000/svg" xmlns:xlink="http://www.w3.org/1999/xlink" viewBox="0 0 300 300" shape-rendering="geometricPrecision" text-rendering="geometricPrecision"><rect width="250" height="250" rx="0" ry="0" transform="translate(25 25)" fill="rgba(210,219,237,0)" stroke="#0a182e" stroke-width="2"/><path d="M62.183357,7.448943h11.266753l-.000001,7.511169h11.892683l-.000001,5.007446" transform="translate(201.236926 273.531733)" fill="none" stroke="#3f5787" stroke-width="1.5"/><path d="M62.183357,7.448943h11.266753l-.000001,7.511169h11.892683l-.000001,5.007446" transform="translate(.000004 0.000001)" fill="none" stroke="#3f5787" stroke-width="1.5"/><g transform="translate(36.010414-6.259308)"><ellipse rx="3.036484" ry="3.129654" transform="translate(160.036484 10.578598)" fill="#d2dbed" stroke-width="0"/><ellipse rx="3.036484" ry="3.129654" transform="translate(153.036484 10.578598)" fill="#d2dbed" stroke-width="0"/></g><g transform="translate(-128.222912 270.402077)"><ellipse rx="3.036484" ry="3.129654" transform="translate(160.036484 10.578598)" fill="#d2dbed" stroke-width="0"/><ellipse rx="3.036484" ry="3.129654" transform="translate(153.036484 10.578598)" fill="#d2dbed" stroke-width="0"/></g><g transform="translate(-128.222912 282.920695)"><ellipse rx="3.036484" ry="3.129654" transform="translate(160.036484 10.578598)" fill="#d2dbed" stroke-width="0"/><ellipse rx="3.036484" ry="3.129654" transform="translate(153.036484 10.578598)" fill="#d2dbed" stroke-width="0"/></g><g transform="translate(-145.420406 282.920695)"><ellipse rx="3.036484" ry="3.129654" transform="translate(160.036484 10.578598)" fill="#d2dbed" stroke-width="0"/><ellipse rx="3.036484" ry="3.129654" transform="translate(153.036484 10.578598)" fill="#d2dbed" stroke-width="0"/></g><g transform="translate(-128.222912 276.661391)"><ellipse rx="3.036484" ry="3.129654" transform="translate(160.036484 10.578598)" fill="#d2dbed" stroke-width="0"/><ellipse rx="3.036484" ry="3.129654" transform="translate(153.036484 10.578598)" fill="#d2dbed" stroke-width="0"/></g><g transform="translate(-145.420406 276.661391)"><ellipse rx="3.036484" ry="3.129654" transform="translate(160.036484 10.578598)" fill="#d2dbed" stroke-width="0"/><ellipse rx="3.036484" ry="3.129654" transform="translate(153.036484 10.578598)" fill="#d2dbed" stroke-width="0"/></g><g transform="translate(-145.420406 270.402077)"><ellipse rx="3.036484" ry="3.129654" transform="translate(160.036484 10.578598)" fill="#d2dbed" stroke-width="0"/><ellipse rx="3.036484" ry="3.129654" transform="translate(153.036484 10.578598)" fill="#d2dbed" stroke-width="0"/></g><g transform="translate(36.010414 6.259308)"><ellipse rx="3.036484" ry="3.129654" transform="translate(160.036484 10.578598)" fill="#d2dbed" stroke-width="0"/><ellipse rx="3.036484" ry="3.129654" transform="translate(153.036484 10.578598)" fill="#d2dbed" stroke-width="0"/></g><g transform="translate(18.812921 6.259308)"><ellipse rx="3.036484" ry="3.129654" transform="translate(160.036484 10.578598)" fill="#d2dbed" stroke-width="0"/><ellipse rx="3.036484" ry="3.129654" transform="translate(153.036484 10.578598)" fill="#d2dbed" stroke-width="0"/></g><g transform="translate(36.010414 0)"><ellipse rx="3.036484" ry="3.129654" transform="translate(160.036484 10.578598)" fill="#d2dbed" stroke-width="0"/><ellipse rx="3.036484" ry="3.129654" transform="translate(153.036484 10.578598)" fill="#d2dbed" stroke-width="0"/></g><g transform="translate(18.812921 0)"><ellipse rx="3.036484" ry="3.129654" transform="translate(160.036484 10.578598)" fill="#d2dbed" stroke-width="0"/><ellipse rx="3.036484" ry="3.129654" transform="translate(153.036484 10.578598)" fill="#d2dbed" stroke-width="0"/></g><g transform="translate(18.812921-6.259308)"><ellipse rx="3.036484" ry="3.129654" transform="translate(160.036484 10.578598)" fill="#d2dbed" stroke-width="0"/><ellipse rx="3.036484" ry="3.129654" transform="translate(153.036484 10.578598)" fill="#d2dbed" stroke-width="0"/></g></svg>
